<svg id="Layer_1" data-name="Layer 1" xmlns="http://www.w3.org/2000/svg" viewBox="0 0 35 35"><defs><style>.cls-1{fill:#fdfefe;}.cls-2{fill:#02cbc0;}</style></defs><path class="cls-1" d="M34.74,17.5c0,5.7,0,11.39,0,17.09,0,.59-.08.8-.76.8q-16.58,0-33.16,0c-.52,0-.83,0-.83-.71Q0,17.5,0,.35C0-.4.31-.37.83-.37q16.58,0,33.16,0c.67,0,.76.2.76.8C34.73,6.1,34.74,11.8,34.74,17.5ZM19.29,3.67,16.73,4A13.12,13.12,0,0,0,9.19,7.36c-3.71,3.42-4.85,7.74-4,12.6a12.42,12.42,0,0,0,4.92,8.23c6.11,4.52,14.2,3.3,19.38-1.82.53-.52.49-.83,0-1.32-.93-.92-1.79-1.91-2.7-2.85-1.48-1.53-1.49-1.52-3.23-.29-4.45,3.12-8.93,1.46-9.71-3.7-.44-2.92.65-6.76,5-7.29,2.4-.29,4.18,1.06,5.65,2.73.68.77.95.63,1.48,0,1.15-1.45,2.3-2.9,3.56-4.26.61-.65.5-1-.08-1.52A16.72,16.72,0,0,0,19.29,3.67Z"/><path class="cls-2" d="M19.29,3.67A16.72,16.72,0,0,1,29.38,7.84c.58.52.69.87.08,1.52-1.26,1.36-2.41,2.81-3.56,4.26-.53.66-.8.8-1.48,0-1.47-1.67-3.25-3-5.65-2.73-4.32.53-5.41,4.37-5,7.29.78,5.16,5.26,6.82,9.71,3.7,1.74-1.23,1.75-1.24,3.23.29.91.94,1.77,1.93,2.7,2.85.49.49.53.8,0,1.32-5.18,5.12-13.27,6.34-19.38,1.82A12.42,12.42,0,0,1,5.14,20c-.8-4.86.34-9.18,4.05-12.6A13.12,13.12,0,0,1,16.73,4Z"/></svg>